<svg xmlns="http://www.w3.org/2000/svg" viewBox="0 0 600 700" role="img" aria-label="Hūdija priekšpuse un aizmugure">
  <g id="shirt-front">
    <!-- Reference-matched pullover hoodie silhouette -->
    <path class="shirt-body" fill="#fff" stroke="#b9b7b1" stroke-width="2.6" stroke-linejoin="round"
      d="M188 202
         L250 184
         C265 194 282 199 300 199
         C318 199 335 194 350 184
         L412 202
         C427 207 438 218 447 233
         L496 319
         C502 330 501 340 495 351
         L454 421
         C448 431 439 439 428 444
         L397 458
         L382 428
         L382 557
         L218 557
         L218 428
         L203 458
         L172 444
         C161 439 152 431 146 421
         L105 351
         C99 340 98 330 104 319
         L153 233
         C162 218 173 207 188 202 Z"/>
    <!-- shoulder / sleeve seams -->
    <path fill="none" stroke="#b9b7b1" stroke-width="2.2"
      d="M188 202 L201 321 M412 202 L399 321"/>
    <!-- cuffs -->
    <path fill="none" stroke="#b9b7b1" stroke-width="2.2"
      d="M172 444 L203 458 M428 444 L397 458"/>
    <!-- front hood, wide and rounded like reference -->
    <path class="shirt-body" fill="#fff" stroke="#b9b7b1" stroke-width="2.6" stroke-linejoin="round"
      d="M250 184
         L250 144
         C250 102 270 76 300 66
         C330 76 350 102 350 144
         L350 184
         C334 195 317 200 300 200
         C283 200 266 195 250 184 Z"/>
    <!-- hood opening -->
    <path fill="none" stroke="#b9b7b1" stroke-width="2.2"
      d="M250 158 C270 151 286 139 300 119 C314 139 330 151 350 158"/>
    <path fill="none" stroke="#b9b7b1" stroke-width="2" d="M300 67 V119"/>
    <!-- drawstrings -->
    <path fill="none" stroke="#b9b7b1" stroke-width="2" stroke-linecap="round"
      d="M287 190 V236 M313 190 V236"/>
    <!-- kangaroo pocket -->
    <path fill="none" stroke="#b9b7b1" stroke-width="2.5" stroke-linejoin="round"
      d="M257 424 H343 L369 501 L340 520 H260 L231 501 Z"/>
    <!-- ribbed hem -->
    <path fill="none" stroke="#b9b7b1" stroke-width="2.3" d="M218 531 H382"/>
  </g>

  <g id="shirt-back" style="display:none">
    <path class="shirt-body" fill="#fff" stroke="#b9b7b1" stroke-width="2.6" stroke-linejoin="round"
      d="M188 202
         L250 184
         C265 194 282 199 300 199
         C318 199 335 194 350 184
         L412 202
         C427 207 438 218 447 233
         L496 319
         C502 330 501 340 495 351
         L454 421
         C448 431 439 439 428 444
         L397 458
         L382 428
         L382 557
         L218 557
         L218 428
         L203 458
         L172 444
         C161 439 152 431 146 421
         L105 351
         C99 340 98 330 104 319
         L153 233
         C162 218 173 207 188 202 Z"/>
    <path fill="none" stroke="#b9b7b1" stroke-width="2.2"
      d="M188 202 L201 321 M412 202 L399 321
         M172 444 L203 458 M428 444 L397 458"/>
    <!-- back hood: broad cap with center seam -->
    <path class="shirt-body" fill="#fff" stroke="#b9b7b1" stroke-width="2.6" stroke-linejoin="round"
      d="M250 184
         L250 139
         C250 101 271 77 300 67
         C329 77 350 101 350 139
         L350 184
         C334 193 317 198 300 198
         C283 198 266 193 250 184 Z"/>
    <path fill="none" stroke="#b9b7b1" stroke-width="2" d="M300 68 V198"/>
    <path fill="none" stroke="#b9b7b1" stroke-width="2.3" d="M218 531 H382"/>
  </g>
</svg>